<svg width="24" height="24" viewBox="0 0 24 24" fill="none" xmlns="http://www.w3.org/2000/svg">
<mask id="mask0_33907_426" style="mask-type:luminance" maskUnits="userSpaceOnUse" x="7" y="2" width="10" height="9">
<path fill-rule="evenodd" clip-rule="evenodd" d="M7.21088 2H16.2729V10.3057H7.21088V2Z" fill="white"/>
</mask>
<g mask="url(#mask0_33907_426)">
<path fill-rule="evenodd" clip-rule="evenodd" d="M15.5229 10.3057C15.1089 10.3057 14.7729 9.9697 14.7729 9.5557V6.52369C14.7729 4.85669 13.4179 3.49969 11.7509 3.49969C10.9399 3.52769 10.1799 3.80769 9.60588 4.37569C9.03188 4.94469 8.71388 5.70169 8.71088 6.50869V9.5557C8.71088 9.9697 8.37488 10.3057 7.96088 10.3057C7.54688 10.3057 7.21088 9.9697 7.21088 9.5557V6.52369C7.21588 5.29469 7.69088 4.16069 8.54988 3.31069C9.40788 2.45969 10.5599 2.03469 11.7539 1.99969C14.2449 1.99969 16.2729 4.0297 16.2729 6.52369V9.5557C16.2729 9.9697 15.9369 10.3057 15.5229 10.3057Z" fill="white"/>
</g>
<mask id="mask1_33907_426" style="mask-type:luminance" maskUnits="userSpaceOnUse" x="2" y="6" width="20" height="16">
<path fill-rule="evenodd" clip-rule="evenodd" d="M2 6.47461H21.4998V21.9996H2V6.47461Z" fill="white"/>
</mask>
<g mask="url(#mask1_33907_426)">
<path fill-rule="evenodd" clip-rule="evenodd" d="M7.00782 7.97461C5.07382 7.97461 3.49982 9.54661 3.49982 11.4796V16.9956C3.49982 18.9276 5.07382 20.4996 7.00782 20.4996H16.4918C18.4258 20.4996 19.9998 18.9276 19.9998 16.9956V11.4796C19.9998 9.54661 18.4258 7.97461 16.4918 7.97461H7.00782ZM16.4918 21.9996H7.00782C4.24682 21.9996 1.99982 19.7546 1.99982 16.9956V11.4796C1.99982 8.71961 4.24682 6.47461 7.00782 6.47461H16.4918C19.2538 6.47461 21.4998 8.71961 21.4998 11.4796V16.9956C21.4998 19.7546 19.2538 21.9996 16.4918 21.9996Z" fill="white"/>
</g>
</svg>
