<svg width="20" height="18" viewBox="0 0 20 18" fill="none" xmlns="http://www.w3.org/2000/svg">
<path fill-rule="evenodd" clip-rule="evenodd" d="M18.4174 0.446679C18.7104 0.739679 18.7104 1.21468 18.4174 1.50768L2.64338 17.2807C2.49738 17.4277 2.30538 17.5007 2.11338 17.5007C1.92138 17.5007 1.72938 17.4277 1.58338 17.2807C1.29038 16.9877 1.29038 16.5137 1.58338 16.2207L3.55533 14.2499C2.14152 12.9568 0.942201 11.2136 0.0614847 9.16088C-0.0205153 8.97088 -0.0205153 8.75688 0.0614847 8.56788C1.08248 6.20388 2.52048 4.24688 4.22048 2.90988C7.51331 0.303928 11.8423 0.165603 15.2687 2.53521L17.3574 0.446679C17.6504 0.153679 18.1244 0.153679 18.4174 0.446679ZM18.0472 5.26768C18.7712 6.22868 19.4072 7.33968 19.9382 8.56568C20.0212 8.75568 20.0212 8.97168 19.9382 9.16068C17.8422 14.0177 14.1272 16.9167 10.0002 16.9167C9.06318 16.9167 8.13118 16.7647 7.23118 16.4657C6.83818 16.3347 6.62518 15.9097 6.75618 15.5167C6.88718 15.1227 7.31018 14.9137 7.70518 15.0417C8.45218 15.2907 9.22418 15.4167 10.0002 15.4167C13.4282 15.4167 16.5612 12.9747 18.4302 8.86368C17.9742 7.86468 17.4432 6.95968 16.8492 6.16968C16.6002 5.83868 16.6662 5.36768 16.9972 5.11868C17.3272 4.86968 17.7982 4.93768 18.0472 5.26768ZM5.14948 4.08788C3.71348 5.21788 2.48048 6.86388 1.57048 8.86588C2.36393 10.6183 3.40631 12.0962 4.61704 13.1876L6.75484 11.05C6.31992 10.4101 6.08588 9.65562 6.08588 8.86548C6.08588 6.70548 7.84188 4.94848 9.99988 4.94848C10.7829 4.94848 11.5488 5.18689 12.1865 5.61778L14.188 3.61638C11.3351 1.77215 7.86297 1.94039 5.14948 4.08788ZM13.2375 8.68848C13.6455 8.76148 13.9165 9.15148 13.8435 9.55948C13.5565 11.1525 12.2945 12.4165 10.7025 12.7065C10.6575 12.7145 10.6115 12.7185 10.5675 12.7185C10.2125 12.7185 9.89648 12.4645 9.83048 12.1025C9.75648 11.6955 10.0265 11.3045 10.4345 11.2305C11.4145 11.0525 12.1905 10.2745 12.3665 9.29348C12.4405 8.88648 12.8305 8.61848 13.2375 8.68848ZM9.99988 6.44848C8.66888 6.44848 7.58588 7.53248 7.58588 8.86548C7.58588 9.25086 7.67661 9.62287 7.84764 9.95694L11.0933 6.71092C10.7591 6.54064 10.3833 6.44848 9.99988 6.44848Z" fill="#777777"/>
</svg>
